<svg id="Capa_1" data-name="Capa 1" xmlns="http://www.w3.org/2000/svg" viewBox="0 0 1920 350"><defs><style>.cls-1,.cls-2{fill:#474a98;}.cls-2{opacity:0.8;font-size:34.18px;font-family:Poppins-Medium, Poppins;font-weight:500;}</style></defs><path class="cls-1" d="M897.89,95.79c30.86,2.55,23.74-2.66,11.31-25.78C908,67.8,895.33,46,871.36,53.17s-35.62,118.18-35.62,161c0,34.17,26,31.41,52,31.52a12.52,12.52,0,0,0,8.45-3.15c9.63-8.68,12.51-28,18.72-37.47-62.07-12.67-20.08,21.15-42.6,20.93-33.87-.33-6.12-212.34,24.09-133.82Z"/><path class="cls-1" d="M895.36,109.68c5.75,28.84-26.2,92.66,26.85,84.3,11.93-.69,31.39,5.89,31.07-10.74-2.87-19,24.89-93.43-7.78-85.4-14.16-1.49-8.47,2.3-1.79,8.19.37,24.53-3.13,66.82-21.27,67.38-30.23.92,3.2-69.47-26.32-64.62Z"/><path class="cls-1" d="M1039.09,195.25c-.89,13.34,26.17,9.93,42.07,7.88a11.18,11.18,0,0,0,9.33-8.14c6.67-24.15,11.64-78.05-1.27-78.23-5.5-.07-16,0-16,0s25.43,67-4.12,72.48c-9.93,1.84-19-6.23-18.93-16.32.11-29.75,20.41-78-18.56-71.43C1031.63,101.49,1042.1,150.08,1039.09,195.25Z"/><path class="cls-1" d="M1134.45,164.21c-16.74-31,71.19-98.46,27.89-98.46h-19.61c12.08,25.64-7.34,49.35-16.85,64.24-3.9-20.46-24.8-45.37-7.49-64.24-10.41,0-29.2-.11-34,0-14.85.37,24.49,42.41,30.15,65.41,6.86,27.91-16.29,61.43-30.22,93.23-17.75-1.21-57.89,10.42-63.56-9.81-3.61-14.24,4.14-36.52-10.91-45.95a21.9,21.9,0,0,0,9.8-5.32c9.61-9.26,7.35-26.09,5.11-42.74-.84-6.28-2.07-10.72-3.37-13-9.24-16.36-41.71-10.69-46.16-10L970,99.09c20.5,18.8,12.71,82.39-6.53,102.84-14.88,9.75,26.22,4.68,33.34,4-23.14-20.4-3.83-59.22,11-12.65-12,74.66,44.22,42.29,99.42,48.59-17.31-20.76,9.69-38.52,16.58-59.69,8.64,18.11,14,39.25,16.24,58.32,13.49.92,30.53.66,43.37-1.25C1145,230.87,1148.17,191.59,1134.45,164.21Zm-129.75-9.38c-25.81,4.2-1.93-30.9-9.17-44.29l1.43-.25C1016.27,108.35,1012.3,147.52,1004.7,154.83Z"/><path class="cls-1" d="M1199.1,194.11c-30.3-32.55,37.7-103.64-31.39-90.33H1166c2.6,18.76-34.32,130.36,2,91.94,1.29-10-4.32-26.92,5.28-33.08,11.48-1.38,4.55,9.89,5.31,15.9.62,6.29-1.24,14.1.45,20.08C1188.1,200.69,1211.82,209.15,1199.1,194.11Zm-17.91-41.87c-19.08-.13-1.58-26.33-3.46-38h.85C1192.05,111.65,1178.65,143.12,1181.19,152.24Z"/><path class="cls-1" d="M783.92,21.83a3.84,3.84,0,0,0-1.55,1.22c-27.65,46.21-21,114.4-65.14,151.32C735,177.54,754,177,772.06,179c-23.82-12.23-17.66-30.82-8.5-51.22,6.81-14.91,7.71-17.31,21.9-12,14.91,2.84-2.89,41.55-2.89,41.55-9.21,23.16,10.27,12.4,27.85,14.05C769.12,134.06,859.66-10,783.92,21.83Zm5.34,15.25,1.16-.51c28.34-1-3.14,41.67,2.14,58.35C754.65,115.2,788.06,53,789.26,37.08Z"/><path class="cls-1" d="M834.82,21.45C833.48,49,815,64.71,847.62,39.27c35.94-15.53,17.7-12-11.37-17.3Z"/><text class="cls-2" transform="translate(520.29 324.4)">Hemeroteca digital de la revista escolar de Corullón</text></svg>